<?xml version="1.0" standalone="no"?>
<!DOCTYPE svg PUBLIC "-//W3C//DTD SVG 20010904//EN"
 "http://www.w3.org/TR/2001/REC-SVG-20010904/DTD/svg10.dtd">
<svg version="1.0" xmlns="http://www.w3.org/2000/svg"
 width="256.000000pt" height="256.000000pt" viewBox="0 0 256.000000 256.000000"
 preserveAspectRatio="xMidYMid meet">
<metadata>
Created by potrace 1.11, written by Peter Selinger 2001-2013
</metadata>
<g transform="translate(0.000000,256.000000) scale(0.100000,-0.100000)"
fill="#000000" stroke="none">
<path d="M1115 2349 c-74 -11 -210 -52 -292 -89 -202 -92 -398 -280 -503 -486
-172 -335 -157 -742 40 -1061 60 -97 184 -232 279 -302 350 -260 836 -280
1208 -51 97 60 232 184 302 279 260 350 280 836 51 1208 -60 97 -184 232 -279
302 -224 167 -522 240 -806 200z m287 -884 c23 -74 45 -130 49 -123 3 7 21 68
39 136 l33 123 96 -3 96 -3 39 -127 c22 -71 43 -128 46 -128 3 0 12 28 19 63
7 34 19 92 27 130 l16 67 99 0 c60 0 99 -4 99 -10 0 -6 -34 -147 -76 -315
l-76 -305 -104 0 -103 0 -25 83 c-13 45 -30 101 -37 125 -7 23 -16 39 -19 35
-4 -4 -20 -61 -36 -126 l-28 -118 -105 3 -105 3 -66 215 -66 215 -94 0 c-59 0
-95 -4 -97 -11 -2 -6 24 -39 57 -73 131 -132 147 -282 37 -334 -30 -15 -75
-17 -326 -17 l-291 0 0 90 0 90 188 0 c190 0 232 4 232 22 0 6 -28 40 -61 76
-80 85 -114 156 -106 223 3 27 14 60 24 74 38 51 58 55 330 55 l253 0 42 -135z"/>
</g>
</svg>
